inDegrees=yes
name=ik_lifting_orientations
DataType=double
version=3
OpenSimVersion=4.5-2024-01-10-34fd6af
endheader
time	pelvis_tilt	pelvis_list	pelvis_rotation	pelvis_tx	pelvis_ty	pelvis_tz	hip_flexion_r	hip_adduction_r	hip_rotation_r	knee_angle_r	knee_angle_r_beta	ankle_angle_r	subtalar_angle_r	mtp_angle_r	hip_flexion_l	hip_adduction_l	hip_rotation_l	knee_angle_l	knee_angle_l_beta	ankle_angle_l	subtalar_angle_l	mtp_angle_l	lumbar_extension	lumbar_bending	lumbar_rotation	arm_flex_r	arm_add_r	arm_rot_r	elbow_flex_r	pro_sup_r	wrist_flex_r	wrist_dev_r	arm_flex_l	arm_add_l	arm_rot_l	elbow_flex_l	pro_sup_l	wrist_flex_l	wrist_dev_l
0.02	-0.005747922980069576	0.002084632965876312	-90.04880396067867	0	0.9399999998679526	0	45.47940020437914	-11.00398018605346	0	60.00086286027037	1.0472126109493	-5.456918489025608	0	0	45.47940020437914	-11.00398018605346	0	60.00086286027037	1.0472126109493	-5.456918489025608	0	0	0.003060306504963766	0.003993980393617683	0.0004406863892773531	-0.4791178856502984	-0.1045734444972879	-0.005039948481004833	0.9888548887914724	1.864690256724602	0	0	0	-11.75778535950601	0	88.17200457076301	1.864690256724602	0	0
0.03	0.004522365598643191	0.02860404368838773	-89.85463945217001	0	0.9399999998679526	0	45.47929359138951	-11.00320058102704	0	60.00086273407633	1.047212608746799	-5.456455983251202	0	0	45.47929359138951	-11.00320058102704	0	60.00086273407633	1.047212608746799	-5.456455983251202	0	0	0.03392476110668396	-0.0005410040005142018	-0.2482616722710835	-0.1809138102452741	-0.1535696274093191	0.4455794834856691	0.5361429903125331	1.86440151180429	0	0	0	-11.75815508391509	0	88.17228760233172	1.86440151180429	0	0
0.04	0.01264607081292371	0.01357654802131888	-89.64439700748022	0	0.9399999998679526	0	45.47916864259652	-11.00228940107825	0	60.00086258591396	1.047212606160878	-5.455915776709189	0	0	45.47916864259652	-11.00228940107825	0	60.00086258591396	1.047212606160878	-5.455915776709189	0	0	0.01238303218285693	-0.01112859101584371	-0.7113389674051118	-0.1320528189077618	-0.2809465924764651	1.04750695686578	0.5958493619054398	1.864062856211467	0	0	0	-11.75858898295585	0	88.17261955701883	1.864062856211467	0	0
0.05	0.04985091238170872	0.05095962092972071	-89.31203242988612	0	0.9399999998679526	0	45.47906062600508	-11.00150711370491	0	60.00086245718628	1.047212603914156	-5.455452674147309	0	0	45.47906062600508	-11.00150711370491	0	60.00086245718628	1.047212603914156	-5.455452674147309	0	0	0.04776577942821033	-0.04724476694391103	-1.161017646104979	-0.1132756000330945	-0.3336702211637217	1.329058914738094	0.611758981812127	1.863769508599649	0	0	0	-11.75896546054146	0	88.17290710027157	1.863769508599649	0	0
0.06	0.01295464422468906	0.01419916460569458	-89.20519365193393	0	0.9399999998679526	0	45.47893399580165	-11.00058129871925	0	60.00086230746442	1.047212601301016	-5.454903669275325	0	0	45.47893399580165	-11.00058129871925	0	60.00086230746442	1.047212601301016	-5.454903669275325	0	0	0.01854881234971009	-0.01770842170565947	-1.340562811422434	-0.05067639924457908	-0.3876843889766753	1.734503336123893	0.6194269468291603	1.863426642405961	0	0	0	-11.7594043616892	0	88.17324318221873	1.863426642405961	0	0
0.07000000000000001	0.010779552545133	0.008801972719552119	-89.48092947026619	0	0.9399999998679526	0	45.47888321801408	-11.00021766215729	0	60.0008622464912	1.047212600236833	-5.454688958442915	0	0	45.47888321801408	-11.00021766215729	0	60.0008622464912	1.047212600236833	-5.454688958442915	0	0	0.01459068475381183	-0.01988290096470464	-1.150043594677689	-0.06136598216904035	-0.4970288363581163	2.093173903504141	0.5789477501473248	1.863288319365343	0	0	0	-11.75958233083478	0	88.17337876834712	1.863288319365343	0	0
0.08	-0.001536369485339355	0.002296078133332057	-89.69898342987078	0	0.9399999998679526	0	45.47882305270277	-10.99979208544251	0	60.00086217353117	1.04721259896344	-5.454438259833639	0	0	45.47882305270277	-10.99979208544251	0	60.00086217353117	1.04721259896344	-5.454438259833639	0	0	0.008129840975098434	-0.006227357505982776	-1.138069307955693	-0.04844444770664788	-0.5860033810788479	2.55890863330153	0.553255706236264	1.863123795805024	0	0	0	-11.75979469775696	0	88.17354003663233	1.863123795805024	0	0
0.09	-0.04853872059830674	-0.04736356995619332	-89.93405741129394	0	0.9399999998679526	0	45.47877686046505	-10.99948446643319	0	60.0008621149223	1.047212597940522	-5.45425917602818	0	0	45.47877686046505	-10.99948446643319	0	60.0008621149223	1.047212597940522	-5.45425917602818	0	0	-0.02298126519134105	0.03383050981111266	-1.048367807868828	-0.05730003036242282	-0.5895104488781608	2.891960612402073	0.5459725390994156	1.862995209011798	0	0	0	-11.75996315505165	0	88.17366607937944	1.862995209011798	0	0
0.1	-0.032497070268791	-0.03302538240852926	-89.70364201889335	0	0.9399999998679526	0	45.4787259903795	-10.99911637224178	0	60.00086205432276	1.047212596882861	-5.454041383401573	0	0	45.4787259903795	-10.99911637224178	0	60.00086205432276	1.047212596882861	-5.454041383401573	0	0	-0.01482902715090115	0.02306823718680493	-1.077848228296941	0.01335777577250628	-0.6469210989298738	2.8527582098611	0.5292280176636586	1.862857058352254	0	0	0	-11.76014044766435	0	88.1738014965045	1.862857058352254	0	0
0.11	-0.02684559954468542	-0.03510088908602427	-89.69075201639694	0	0.9399999998679526	0	45.47867106327661	-10.99871608872806	0	60.00086198928318	1.047212595747706	-5.453804247685593	0	0	45.47867106327661	-10.99871608872806	0	60.00086198928318	1.047212595747706	-5.453804247685593	0	0	-0.01598876331750139	0.01991025199245826	-1.047153105298075	0.0166168108817588	-0.6732452368518285	2.950503187059431	0.511100789287802	1.862708231032082	0	0	0	-11.76033106691037	0	88.17394737900794	1.862708231032082	0	0
0.12	-0.02764281470500675	-0.02588626824589139	-89.66805731903484	0	0.9399999998679526	0	45.47856402686183	-10.99798208877404	0	60.00086185640065	1.047212593428468	-5.45337449190102	0	0	45.47856402686183	-10.99798208877404	0	60.00086185640065	1.047212593428468	-5.45337449190102	0	0	-0.007129943644622732	0.01402308989402044	-1.49885630294936	0.00526066914324707	-0.6093716832325271	3.566429632035984	0.5269576964525514	1.862412812135216	0	0	0	-11.76071536099844	0	88.17423695294379	1.862412812135216	0	0
0.13	-0.009285257980088089	-0.02410512424770594	-89.35186730319518	0	0.9399999998679526	0	45.47841745518561	-10.99691516036093	0	60.00086168280707	1.047212590398689	-5.45274270168443	0	0	45.47841745518561	-10.99691516036093	0	60.00086168280707	1.047212590398689	-5.45274270168443	0	0	-0.004839819529254063	0.003006472406433207	-1.884267116827105	0.01179954532032688	-0.5602270456176677	3.90016985712888	0.5706978848557264	1.862015600089862	0	0	0	-11.7612241755746	0	88.17462630543993	1.862015600089862	0	0
0.14	-0.07385398207529166	-0.0735631326828956	-89.45868570411277	0	0.9399999998679526	0	45.47828685523394	-10.99596113066383	0	60.00086152866621	1.047212587708423	-5.452177496719039	0	0	45.47828685523394	-10.99596113066383	0	60.00086152866621	1.047212587708423	-5.452177496719039	0	0	-0.0545129390412117	0.0558322355248505	-1.224045648274406	0.04147720126137443	-0.4632955902671989	3.62221007752506	0.5661339054802138	1.861662119714985	0	0	0	-11.76167646939779	0	88.1749727915394	1.861662119714985	0	0
0.15	-0.1263047099055334	-0.1149532108962332	-89.54422309334758	0	0.9399999998679526	0	45.47823625736451	-10.99559317620928	0	60.00086146875355	1.04721258666275	-5.451959720421835	0	0	45.47823625736451	-10.99559317620928	0	60.00086146875355	1.04721258666275	-5.451959720421835	0	0	-0.09275660720519707	0.1065677484578985	-0.9885971182390479	0.02756829979264809	-0.3275301721162843	3.895659314623023	0.6527790169843867	1.861524994566356	0	0	0	-11.76185211797979	0	88.17510720342291	1.861524994566356	0	0
0.16	-0.1091284744000911	-0.1095318528204206	-89.33756935955232	0	0.9399999998679526	0	45.47808936472456	-10.99452261290959	0	60.00086129516666	1.047212583633087	-5.451325886810895	0	0	45.47808936472456	-10.99452261290959	0	60.00086129516666	1.047212583633087	-5.451325886810895	0	0	-0.09291988240974756	0.08833148336720083	-1.224587012897536	-0.0121974775007158	-0.2434524396024001	4.42943273227578	0.6901448509617544	1.861127192964678	0	0	0	-11.76236135526821	0	88.17549713378942	1.861127192964678	0	0
0.17	-0.1146918282570067	-0.1073102338767354	-89.14614643129303	0	0.9399999998679526	0	45.47803292683025	-10.99411314294103	0	60.00086122825209	1.047212582465208	-5.451083693188813	0	0	45.47803292683025	-10.99411314294103	0	60.00086122825209	1.047212582465208	-5.451083693188813	0	0	-0.08942846314901098	0.09333803671870858	-1.156297972195582	-0.0303362158911598	-0.1383547898050155	4.72031572970136	0.7646318459924003	1.860974152035369	0	0	0	-11.76255748406277	0	88.17564714653919	1.860974152035369	0	0
0.18	-0.06635720220455629	-0.06034596152863981	-89.33610688540401	0	0.9399999998679526	0	45.47798025748471	-10.99373143974114	0	60.0008611657789	1.047212581374845	-5.450858003834428	0	0	45.47798025748471	-10.99373143974114	0	60.0008611657789	1.047212581374845	-5.450858003834428	0	0	-0.05261386824838379	0.06190783832769268	-0.9749452701943586	-0.04735441504742335	-0.04455422221038281	5.238971710614402	0.8201695063924084	1.86083130043845	0	0	0	-11.76274058233414	0	88.17578717157252	1.86083130043845	0	0
